<?xml version="1.0" encoding="utf-8"?>
<!-- Generator: Adobe Illustrator 27.3.1, SVG Export Plug-In . SVG Version: 6.00 Build 0)  -->
<svg version="1.1" id="Layer_1" xmlns="http://www.w3.org/2000/svg" xmlns:xlink="http://www.w3.org/1999/xlink" x="0px" y="0px"
	 viewBox="0 0 300 550" style="enable-background:new 0 0 300 550;" xml:space="preserve">
<style type="text/css">
	.st0{fill:#FF73D7;}
	.st1{fill:#CE0505;}
	.st2{fill:#0B280B;}
	.st3{fill:#BFC2C5;}
	.st4{fill:#FFFFFF;}
</style>
<g>
	<g>
		<path class="st2" d="M29.5,531.6c-0.2,0.2-0.5,0.3-0.7,0.5"/>
		<path class="st2" d="M-71,531.9L-71,531.9 M28.6,532C28.6,532,28.6,532,28.6,532"/>
	</g>
</g>
<g>
	<g>
		<path class="st3" d="M249,531.9L249,531.9 M348.6,532C348.6,532,348.6,532,348.6,532"/>
		<path class="st3" d="M272.4,433.9c-0.9,3.8-3.3,12.4-8.1,22.6c-3.5,7.3-7,12.7-8.7,15.2c-1.9,2.9-5.5,7.9-10.7,13.6
			c-5.2,5.7-13.3,13.4-24.5,20.4c-1.9,1.2-3.5,2.1-4.5,2.7c0.5,1.5,1.3,4.2,0.9,7.6c-0.4,3.5-1.8,6-2.5,7.2
			c-3.9,6.7-11.2,9.7-16.3,11.7c-7,2.8-12.9,3.5-18.7,4.2c-5.8,0.7-10.7,0.7-14.2,0.7h-0.4c-3.5,0.1-8.4,0-14.2-0.7
			c-5.9-0.7-11.7-1.4-18.7-4.2c-5.1-2-12.4-5.1-16.3-11.7c-0.7-1.2-2.1-3.6-2.5-7.2c-0.4-3.4,0.4-6.1,0.9-7.6
			c-1.1-0.6-2.6-1.5-4.5-2.7c-11.2-7-19.3-14.7-24.5-20.4c-5.2-5.7-8.8-10.7-10.7-13.6c-1.7-2.6-5.2-7.9-8.7-15.2
			c-4.9-10.2-7.2-18.8-8.1-22.6c-2-8.3-4.7-19.4-3.1-33.6c1.1-9.4,3.5-16,4.2-17.8c0.8-2.2,3.4-8.5,8.5-15.7c2-2.8,4.2-5.9,7.9-9.2
			c2-1.8,6.7-6.1,13.7-9c2-0.8,3-1.1,8.4-3.2c3.6-1.4,5.4-2.1,6.5-2.7c7.1-3.4,11.2-9.7,12.6-11.8c0.9-1.4,4.4-7.1,5.3-15.4
			c0.5-4.3,0.1-7.6-0.3-9.9c-1-6.9-3.2-10.6-4.8-12.1c-0.6-0.6-1.4-1.1-1.4-1.1c-1.7-1.2-3.4-1.6-4.6-1.7
			c-7.7-1.7-13.2-8.5-13.4-16.2c-0.2-8.2,5.7-15.5,14-17c3.9-0.4,9.7-1,16.8-1.2c0.5,0,1.1,0,1.7-0.1c8.1-0.2,14-0.1,18,0h19.2
			c0,8.7,0,17.3,0.1,26c0.7,3.4,1.5,6.8,2.2,10.2c-2.7,4-5.5,8.1-8.2,12.1c0.6,4.6,1.3,9.2,1.9,13.9c-4,6-8.1,11.9-12.1,17.9
			c1.6,6.4,3.1,12.8,4.7,19.1c4.8,9.5,9.5,18.9,14.3,28.4c-2.8,4.1-5.5,8.1-8.3,12.2c1.4,3.6,2.8,7.2,4.2,10.7
			c-5.9,5.8-11.9,11.5-17.8,17.3c-5.8,10.4-11.7,20.8-17.5,31.2c-4.8,3.3-9.5,6.5-14.3,9.8c1,7.1,2.1,14.3,3.1,21.4
			c3.3,2.9,6.5,5.9,9.8,8.8c-2.1-3.5-4.2-7-6.3-10.5c-0.7-5.3-1.4-10.7-2.1-16c4-2.6,8.1-5.2,12.1-7.8c2.7,6,5.5,11.9,8.2,17.9
			c1,5.6,2,11.3,3.1,16.9c0.5-6.4,1.1-12.8,1.6-19.2c-3-6.7-5.9-13.4-8.9-20.1c5.3-9.2,10.5-18.5,15.8-27.7c3.1-2.8,6.2-5.5,9.3-8.3
			c1.2,1.8,2.3,3.5,3.5,5.3c2.1,8.7,4.1,17.3,6.2,25.9c-5,7.1-10,14.1-15.1,21.2c0.9,5.2,1.8,10.3,2.7,15.5
			c0.1-5.1,0.2-10.2,0.4-15.3c4.3-4.5,8.6-8.9,12.9-13.4c4.1,7.4,8.2,14.9,12.3,22.3c-2,6.8-3.9,13.5-5.9,20.3
			c2.4,4.5,4.8,9,7.3,13.5c-1.1-5.2-2.1-10.3-3.2-15.5c2.2-6.3,4.4-12.6,6.6-18.9c-4.1-8.1-8.2-16.3-12.2-24.4
			c-1.4-6.6-2.8-13.3-4.3-19.9c6.7,3.6,13.5,7.1,20.2,10.7c2.1,2.4,4.1,4.9,6.2,7.3c4,0.8,8,1.5,12.1,2.3c1.9,2.4,3.8,4.9,5.7,7.3
			c-1.3-3.5-2.6-7-3.9-10.5c-4-0.9-7.9-1.8-11.9-2.7c-1.5-2.1-3.1-4.3-4.6-6.4c-8.5-5.5-17-11-25.5-16.5c-0.4-1.5-0.8-3.1-1.2-4.6
			c-1.3-2.3-2.7-4.5-4-6.8c2.5-2.5,5-5,7.6-7.5c-1.2-3.6-2.5-7.2-3.7-10.8c2.8-4.3,5.7-8.6,8.5-13c-5.4-11.1-10.7-22.2-16.1-33.2
			c-1.1-5-2.2-10.1-3.4-15.1c3.7-5.6,7.4-11.2,11.1-16.9c-0.7-5.1-1.3-10.1-2-15.2c3-4.4,6-8.8,9-13.2c-0.9-3.5-1.8-7.1-2.6-10.6
			c0.1-8.5,0.2-17,0.4-25.5h8.6c4.1-0.1,9.9-0.2,18,0c0.6,0,1.1,0,1.7,0.1c7.1,0.3,12.9,0.8,16.8,1.2c8.2,1.5,14.2,8.9,14,17
			c-0.2,7.7-5.7,14.4-13.4,16.2c-1.1,0.2-2.9,0.6-4.6,1.7c0,0-0.7,0.5-1.4,1.1c-1.6,1.6-3.8,5.3-4.8,12.1c-0.3,2.3-0.7,5.5-0.3,9.9
			c0.9,8.3,4.4,14,5.3,15.4c1.4,2.1,5.5,8.4,12.6,11.8c1.1,0.5,2.9,1.2,6.5,2.7c5.4,2.1,6.4,2.4,8.4,3.2c7,2.9,11.7,7.2,13.7,9
			c3.7,3.4,5.9,6.4,7.9,9.2c5.1,7.2,7.7,13.5,8.5,15.7c0.7,1.8,3.1,8.4,4.2,17.8C277.1,414.5,274.4,425.6,272.4,433.9z"/>
		<path class="st3" d="M172.9,219.3c0,2.2,0,4.1,0,6.4v0c0,3.3-0.1,7.4-0.1,14.5c0,0.6,0,1.2,0,1.8c0,4.7-0.1,8.6-0.1,11.2
			c-1.8,0-3.6,0-5.4,0.1c0.3-12.3,0.3-22.6,0.3-30.3c-0.1-14.4-0.1-25.7-1-40.4c-0.7-11.1-1.5-19.8-1.8-22.3c-2.2-18.9-7.9-47-24-81
			c1.1-0.9,2.3-1.9,3.4-2.8c5.1,10.4,11.1,24.3,16.3,41.4c4.5,14.7,6.7,25.9,7.2,28.5c3.8,19.6,4.4,35.4,4.8,48.7
			C173,206.1,172.9,217.9,172.9,219.3z"/>
		<path class="st3" d="M214.8,237.3c5.5-3.6,8.8-7.5,12.9-12c4.8-5.3,9.3-12.5,18.3-26.6c0.3-0.5,5.7-8.9,13-18.4
			c1.6-2.1,4-5.1,7.7-8.3c4.6-3.9,8.7-5.8,9.8-6.3c4.9-2.2,9.4-3.1,12.8-3.4c0-0.7,0-1.4,0-2c-4.5-0.6-8.2-0.7-10.7-0.7
			c-6.2,0-15,0.1-24.9,4.6c-2,0.9-4.8,2.3-7.8,4.4c-7.7,5.4-12.3,12.2-14.8,16c-2.1,3.1-5.2,7.6-9,13c-4.1,5.8-10,14.5-17.3,23.6
			c-9.6,12.1-14,15.8-19.6,18.4c-3.3,1.5-6.1,2.4-8.1,2.8c0,1.2,0,2.5-0.1,3.7c3.2-0.1,6.3-0.2,9.5-0.2
			C192.9,245.8,204.1,244.5,214.8,237.3z"/>
		<path class="st3" d="M208.6,46.2c1.1,8.5-2.5,18.3-9.9,37.4c-6.6,17.4-9.2,19.9-14,35.3c-3.6,11.6-4.9,19.1-5.6,25.4
			c-0.9,8.4-0.7,15.5-0.3,20.7c0.2,2.6,0.4,5.3,0.6,7.9c-0.7,0.1-1.5,0.1-2.2,0.2c-0.3-2.5-0.6-5.1-0.9-7.6
			c-0.2-1.4-0.6-3.5-0.9-6.1c-1.9-12.8-5.1-33-2.5-51.1c1.6-10.9,4.6-18.5,10.6-33.8c7.1-18.1,12.8-26.8,11.5-40
			c-0.7-7.3-3.4-13.1-5.8-17.3c0.3-0.3,0.7-0.6,1-1C204.5,28.4,207.8,39.6,208.6,46.2z"/>
		<path class="st3" d="M226.1,131.2c0.9,1.4,1.7,2.8,2.6,4.2c-0.8,0.8-2,1.9-3.3,3.4c-1.6,1.6-12,12.1-19.4,22.9
			c-9.3,13.7-15.5,27.5-20.3,43.3c-4.7,15.2-6.1,27-6.4,30.1c-0.1,0.9-0.2,1.6-0.2,2.1c-0.6,0.2-1.2,0.4-1.7,0.6
			c0.1-1.3,0.3-3.3,0.5-5.6c0.6-5.7,1.7-20.1,5.2-32.7c7.3-26.5,21.3-48.9,41.6-67.2C225.1,131.9,225.6,131.5,226.1,131.2z"/>
		<path class="st3" d="M161.9,246.3c-0.2-5.6-1.6-16.3-9-24.4c-4-4.3-9.5-7.8-11.4-8.9c-3.9-2.5-7.5-4.1-10.1-5.2
			c0.2-1.6,0.4-3.3,0.6-4.9c2.7,1,6.3,2.6,10.4,4.9c4.1,2.3,7.9,4.4,11.6,7.8c2.7,2.5,6.9,7.2,9.8,15.1c0.1,5.2,0.2,10.4,0.3,15.7
			C163.5,246.3,162.7,246.3,161.9,246.3z"/>
		<g>
			<path class="st3" d="M80.6,158.6c-2.2-3.1-8.5-2.7-12.1,0.2c-2.3,1.8-3.1,4.4-3.5,5.8c-0.4,1.4-1,3.3-0.4,5.5
				c0.2,0.8,1,3.1,3.2,4.4c3.5,2.1,8.6,0.7,9.2-1.4c0.5-1.5-1.9-2.4-1.6-4.4c0.4-2.6,4.7-2.6,5.7-5.8
				C81.8,161.4,81.4,159.7,80.6,158.6z"/>
			<path class="st3" d="M93.7,157.7c-1.3-1.8-2.5-2.7-3.7-3.4c-0.8-0.4-1.8-0.9-2.8-0.6c-0.8,0.3-1.4,1.1-1.7,1.9
				c-0.6,2.3,1.8,3.7,1.4,6.7c0,0.4-0.1,1.1-0.5,1.8c-1.5,2.7-5.4,2.8-6.1,5.1c0,0.2-0.1,0.3-0.1,0.5c-0.1,1.2,1.1,1.7,1.2,3.1
				c0,0.3,0,0.5-0.1,0.8c-0.4,2.4-4.1,3.3-5,5.5c-0.9,2.2,0.9,5.6,3.5,7c3.2,1.6,6.7-0.4,9.1-1.8c0.8-0.5,3.6-2.2,5.8-5.6
				c0.4-0.7,2.3-3.7,2.6-8.1c0.3-3.6-0.6-6.3-1-7.5C96.2,162.3,95.4,160.1,93.7,157.7z"/>
			<path class="st3" d="M63.3,176.1c-0.2-0.2-2.9-2.6-3.4-6.4c-0.2-1.9,0.2-3.3,0.9-5.6c0.6-2.1,1.3-4.3,3.2-6.5
				c0.6-0.7,2.5-2.9,5.9-4.3c0.5-0.2,2.5-1,5.4-1.1c3.9-0.2,4.7,1.1,6.8,0.3c1.8-0.7,3.2-2.5,3.7-4.3c0.1-0.4,0.7-2.7-0.5-4.4
				c-1.2-1.7-3.4-2-5.6-2.1c-1,0-19.1-0.6-26,9.3c-0.6,0.9-1.2,2-2.6,3.7c-2.9,3.5-4.4,3.8-6.4,6.9c-1.2,1.8-2.8,4.1-2,5.9
				c0.7,1.8,2.8,1.1,5.4,2.8c4.8,3.2,3.4,9.4,9,12.8c0.1,0.1,0.5,0.3,1.1,0.6c1.2,0.5,3,1.2,9.2,1c2.9-0.1,3.6-0.2,4.1-0.8
				c0.7-0.8,1-2.1,0.6-3.2C71,178.1,66.9,179.3,63.3,176.1z"/>
			<path class="st3" d="M106.2,138.8c-2.8-3.3-6.3-5.1-9.4-6.8c-4.4-2.3-7.6-3-10.2-3.1c-2.3-0.1-4.5-0.2-5.9,1.3
				c-1.6,1.6-1.9,4.8-0.6,6.6c1.9,2.8,5.9,0.9,8.6,3.8c1.8,1.9,0.7,3.3,2.1,7.4c1.9,5.7,4.9,5.2,7.9,11.3c2.5,5.2,2,8.8,4.5,9.5
				c1.7,0.5,3.6-0.9,4-1.2C113.3,163,113.7,147.4,106.2,138.8z"/>
			<path class="st3" d="M59.2,140.6c2.1-1.3,3.9-1.7,7.4-2.5c4.9-1,6.5-0.1,7.9-1.7c1.2-1.4,0.2-2.4,1.2-5c0.9-2.3,2.9-4.9,5.6-5.8
				c4.3-1.6,8,1.8,9.9-0.1c1-1,0.9-2.7,0.6-3.8c-1.4-4.5-10.4-5.2-12.1-5.3c-10.6-0.8-18.5,5-19.7,6c-7,5.4-9.3,12.2-9.5,13.8
				c0,0.1,0,0.2,0,0.2c-0.3,2.2-0.1,5.3,1.7,6.3c0.8,0.4,1.6,0.3,2.6,0.1C56.8,142.5,58,141.4,59.2,140.6z"/>
			<path class="st3" d="M44.6,141.2c-0.3-0.1-2.2-0.6-4.4,0.3c-3.1,1.2-3.9,4-6.7,7.8c-3.1,4.4-3.8,3.2-6.5,7
				c-1.6,2.2-6,8.3-4.8,15.4c0.5,3,1.8,5.2,3,7.2c2.3,3.8,4.9,5.7,7.1,7.4c2.6,2,3.5,2,4.2,1.9c1.8-0.4,2.8-2.9,3-4.7
				c0.4-2.8-1-3.9-2-7.3c-0.2-0.7-1.5-5.4,0-10.4c1.1-3.8,3.4-6.4,5.2-8.5c2.9-3.3,4.7-4,5.9-7.2c0.4-1.2,1.1-3.1,0.3-5.2
				C47.8,142.1,44.9,141.3,44.6,141.2z"/>
			<path class="st3" d="M59,189.5c2.7-2.8,7.7-0.1,13.3-2.1c0.5-0.2,1-0.4,1.8-0.4c2.1,0.1,2.8,2.1,5.2,3.1c1.1,0.5,2.1,0.5,3.4,0.5
				c5.3,0.1,13.1-4.3,16.5-11.4c1.1-2.4,1.1-3.6,2.7-4.9c2.4-1.9,6.2-2.1,9.1-0.7c1,0.5,3.4,1.5,3.8,3.6c0.5,2.3-1.7,4.3-3.4,6.3
				c-7.8,9.1-4.8,16-12.3,20.9c-1,0.6-2.8,1.8-5.5,2.3c-4,0.8-5.5-1.3-12.1-1.6c-3.9-0.2-5.2,0.1-8.3-0.5c-4.6-0.9-7.8-2.8-9.4-3.8
				c-2.9-1.9-6.5-4.3-6.5-7.8C57.7,192.5,57.8,190.8,59,189.5z"/>
			<path class="st3" d="M48.6,177.5c0-0.1-0.2-0.4-0.4-0.8c-0.3-0.5-1.4-2.8-3.9-3.6c-0.9-0.3-2.4-0.8-3.1-0.1
				c-1.4,1.3,2,4.9,2.5,9.6c0.7,7.4-6.7,9.6-6.1,16.6c0.5,6.6,7.6,10.7,8.6,11.3c1.5,0.9,4.8,2.6,9,2.2c3-0.3,8.1-2,8.5-4.8
				c0.5-3.6-7.2-4.6-9.5-11.8c-1.4-4.4,1-5.4-0.9-9.6C52.3,184.1,49.9,180.8,48.6,177.5z"/>
			<path class="st3" d="M15.4,165.7c0.3-0.3,1-0.9,1.5-0.7c1.3,0.4,0.4,4.2,0.9,8c1,7.6,7.8,13.6,9.6,15.4c2.9,3.1,4.3,3.5,5.4,6.2
				c1.5,3.4-0.2,4.6,1.3,8.1c2.2,5.4,6.6,7.6,5.8,9.7c-0.2,0.5-0.8,1.3-3.9,1.7c-3.6,0.5-10.1,0.3-16.3-4.1
				c-5.8-4.2-10.7-11.7-10.3-19.3c0.2-3.5,1.3-4.6,2.3-7.6c0.5-1.4,0.8-2.8,1.2-5.6C14,170.6,13.1,167.6,15.4,165.7z"/>
			<path class="st3" d="M65.6,212.4c0.7-2.2,2.9-3.3,3-3.3c1.8-0.9,3.2-0.3,6.6,0.2c4.7,0.7,4.3-0.1,8.9,0.6c5,0.7,5,1.5,8,1.5
				c0.8,0,4.4-0.1,8.2-2.3c0.7-0.4,3.7-2.1,6.4-6c2.4-3.5,1.9-5,3.8-9.5c1-2.4,5-12,12.6-13.9c1.3-0.3,3.4-0.9,5,0.2
				c3.3,2.2,3,10,1,14.4c-0.3,0.7-1.3,2.6-2,5.5c-1.1,4.1-0.8,6.7-0.9,8.6c-0.3,4.5-5.5,13.5-13.7,16.1c-3.4,1-6.6,0.9-9.6,0.7
				c-4.6-0.3-4.9-1.2-8.9-1.3c-4.7-0.1-5.4,1.1-11.2,1.3c-2.3,0.1-5.9,0.3-8.7-0.7C68.8,222.8,64.3,216.6,65.6,212.4z"/>
			<path class="st3" d="M39.9,218.7c0.1-0.3,0.7-2.4,2.5-3.2c2.4-1.1,4.1,1.3,8.8,1.8c4.4,0.5,5.9-1.3,8.4,0.1
				c1.5,0.9,1.1,1.6,3.4,4.7c1.1,1.5,3.2,4.1,6.3,5.9c2.2,1.3,4.1,1.6,5.7,1.9c8.8,1.7,15.5-1.9,16.8,0.5c0.3,0.5,0.2,1.1,0.2,1.2
				c-0.4,2.2-4.9,2.9-9.8,4c-9.6,2.1-8.3,3.2-12.8,3.6c-8.3,0.7-14.8-2.6-16.6-3.6C46.1,231.9,38.3,224.2,39.9,218.7z"/>
			<path class="st3" d="M125.6,131.7c0,0-5.1-6.9-12.4-10c-3-1.3-5.5-1.5-8.6-1.9c-5.4-0.5-6.7,0.5-7,0.8c-1.5,1.3-2.2,3.8-1.5,5.8
				c1,2.7,3.7,2.1,9.3,6.1c3.4,2.4,5.1,4.6,5.6,5.3c0.5,0.7,1.8,2.5,2.9,5.2c0.5,1.2,2.3,5.7,2,12.8c-0.3,7.8-2.6,8.8-1.4,12.5
				c1.3,3.7,5.3,7.3,9.3,7c4.7-0.3,7.4-5.7,9-8.7c3.9-7.8,2.6-15.7,1.9-18.4C132.4,139.6,125.6,131.7,125.6,131.7z"/>
			<path class="st3" d="M146.6,149.2c-4-8.7-7.2-9.6-7.9-9.6c-0.1,0-0.5,0-0.8,0.2c-0.8,0.7,0.2,3,0.4,3.6c1.3,3.4,3.6,16-0.9,23.8
				c-1.8,3.1-5,6-4.1,9.2c0.1,0.4,0.2,0.4,0.5,1.3c1.3,3.4,1.5,6.1,1.6,6.8c0.1,1.1,0.2,2.4-0.1,4.1c-0.6,3.6-2.3,6.1-1.5,7.8
				c0.1,0.1,0.3,0.6,0.8,0.8c0.7,0.3,1.4,0.1,1.9-0.1c1.7-0.5,2.8-1.9,3.6-3c0.1-0.1,0.1-0.1,0.1-0.2c4-5.1,7.1-4.8,9.5-9
				c2.5-4.2,2.2-8.6,1.6-17.4C151.2,163.9,150.2,156.9,146.6,149.2z"/>
			<path class="st3" d="M73.1,111.5c-1.1-1.8,1.7-5.8,4.6-8c2.5-1.9,2.9-1.7,9.2-3.2c11.5-2.7,12.6-4.5,16-3.3
				c3.2,1.2,2.2,2.8,7.3,6.6c5.7,4.2,8.1,3,12.1,7c1.9,1.9,1.2,2.1,5.1,7.2c3.1,4,4.1,4.8,5.2,6.1c0,0,0,0,0,0
				c1.3,1.7,1.8,3.4,2.8,6.7c0.7,2.3,1,3.4,0.5,4.1c-0.1,0.2-0.5,0.7-1.1,0.9c0,0-0.4,0.1-0.8,0c-1.5-0.4-2.8-3.9-5.2-7.1
				c0,0-0.2-0.3-0.9-1.2c-1.1-1.4-4.9-6-10.8-8.9c-6.2-3.1-12.6-3-17.9-2.9c-0.9,0-1.2,0-2.1,0c-5.9-0.2-8.3-2.2-12.6-3.2
				C77.7,110.7,74.1,113.4,73.1,111.5z"/>
			<path class="st3" d="M19.4,159.8c0.6,0.1,1.1-0.5,1.4-0.8c1.3-1.5,2.2-3.1,2.5-3.6c1-1.7,1.8-3.3,3.4-4.7
				c0.7-0.6,1.1-0.8,1.9-1.7c1-1.1,1.6-2,1.9-2.6c2.1-3.5,3.2-5.3,5-6.7c1.2-1,2.4-1.5,3.5-2.1c1.9-0.9,2.9-1,4.3-2.1
				c0.3-0.3,1.2-0.9,2-2c1.4-1.7,1.8-3.4,2-3.9c1.3-4.2,7.8-11,15.4-14.6c3.7-1.8,5.3-1.7,5.2-2.4c0-2.1-14.7-7.3-26.8-1.7
				c-6.8,3.2-9.8,8.6-15.8,19.5c-9.8,17.9-7.3,27.8-6.7,28.7C18.9,159.7,19.4,159.8,19.4,159.8z"/>
		</g>
		<g>
			<path class="st3" d="M127.9,52.5c2.2-1.2,3.3-3.2,3.8-4c0.7-1.2,1.5-2.6,1.4-4.4c-0.2-2.4-1.9-4-2.3-4.3
				c-2.5-2.1-6.7-2.3-7.9-0.7c-0.9,1.3,0.9,2.9,0,4.6c-1.2,2.4-5.2,1.3-6.5,3.8c-0.8,1.5,0.1,3.3,0.2,3.4
				C118.3,54,124.2,54.7,127.9,52.5z"/>
			<path class="st3" d="M106.6,49.4c0.8,1.7,1.6,2.6,2.5,3.3c0.6,0.5,1.3,1,2.2,0.9c0.7-0.1,1.3-0.7,1.7-1.3
				c0.9-1.7-0.9-3.3-0.2-5.7c0.1-0.3,0.3-0.9,0.7-1.4c1.6-2,4.8-1.5,5.7-3.3c0.1-0.1,0.1-0.2,0.2-0.4c0.3-1-0.6-1.6-0.5-2.7
				c0-0.3,0.1-0.4,0.2-0.7c0.7-1.9,3.8-2,4.9-3.7c1-1.6,0.1-4.7-1.8-6.2c-2.3-1.8-5.5-0.7-7.7,0c-0.7,0.2-3.3,1.2-5.6,3.7
				c-0.4,0.5-2.4,2.7-3.3,6.2c-0.8,2.9-0.5,5.2-0.4,6.3C105.2,45.2,105.5,47.2,106.6,49.4z"/>
			<path class="st3" d="M135.5,39.4c0.1,0.2,2,2.6,1.8,5.8c-0.1,1.6-0.7,2.7-1.6,4.4c-0.8,1.6-1.7,3.3-3.6,4.9
				c-0.6,0.5-2.5,2-5.5,2.6c-0.4,0.1-2.2,0.4-4.5,0.1c-3.2-0.4-3.7-1.6-5.5-1.2c-1.6,0.3-3,1.5-3.6,2.9c-0.2,0.3-1,2.1-0.3,3.6
				c0.7,1.5,2.5,2.2,4.3,2.6c0.8,0.2,15.5,3.5,22.6-3.6c0.7-0.7,1.3-1.5,2.7-2.6c2.9-2.4,4.2-2.5,6.3-4.6c1.3-1.3,2.9-2.9,2.5-4.5
				c-0.3-1.6-2.1-1.3-4-3.1c-3.4-3.4-1.4-8.2-5.4-11.8c-0.1-0.1-0.4-0.4-0.8-0.7c-0.9-0.6-2.3-1.4-7.3-2.2c-2.4-0.4-3-0.3-3.5,0.1
				c-0.7,0.5-1.1,1.6-1,2.5C129.5,36.7,133,36.3,135.5,39.4z"/>
			<path class="st3" d="M92.4,62.4c1.8,3.1,4.4,5.2,6.7,7c3.3,2.6,5.8,3.6,7.8,4.1c1.9,0.4,3.6,0.8,5-0.2c1.5-1.1,2.3-3.6,1.5-5.3
				c-1.1-2.6-4.7-1.6-6.5-4.4c-0.2-0.4-0.4-0.7-0.5-1c-0.6-2.4-0.2-4.2-0.1-5.4c0.2-2.9-2.4-3.4-4.3-7.4c-2.6-5.5-0.2-10.2-2.6-11.4
				c-1.3-0.7-3,0.1-3.5,0.4C90.2,41.6,87.6,54.2,92.4,62.4z"/>
			<path class="st3" d="M132.1,68.6c-1.9,0.8-3.4,0.8-6.4,0.9c-4.1,0.1-5.4-0.9-6.7,0.2c-1.2,0.9-0.6,2-1.8,3.9
				c-1.1,1.7-3.1,3.5-5.5,3.9c-3.8,0.6-6.2-2.7-8.1-1.4c-0.9,0.6-1.2,2.1-1,3c0.5,3.9,7.7,5.8,9.1,6.2c8.6,2.3,15.9-1.3,17-1.9
				c6.6-3.3,9.4-8.6,9.9-9.8c0-0.1,0-0.1,0-0.1c0.6-1.7,0.9-4.3-0.4-5.4c-0.6-0.5-1.2-0.5-2.1-0.5C134.4,67.5,133.2,68.2,132.1,68.6
				z"/>
			<path class="st3" d="M144.6,70.7c0.3,0.1,1.7,0.9,3.6,0.6c2.8-0.4,3.9-2.4,6.9-5.1c3.4-2.9,3.6-1.8,6.6-4.4
				c1.7-1.5,6.4-5.6,6.8-11.6c0.2-2.6-0.5-4.6-1.1-6.4c-1.2-3.5-2.9-5.6-4.4-7.4c-1.7-2.1-2.5-2.3-3-2.3c-1.5,0-2.8,1.8-3.3,3.2
				c-0.8,2.2,0.1,3.3,0.2,6.3c0,0.6,0.1,4.7-2,8.4c-1.6,2.8-4,4.5-5.8,5.8c-3,2.1-4.6,2.3-6.1,4.7c-0.6,0.9-1.5,2.3-1.2,4.2
				C142.2,69.4,144.3,70.6,144.6,70.7z"/>
			<path class="st3" d="M139.3,28.1c-1,0.9-2.3,0-6.8-0.6c-3.9-0.5-4.4-0.1-5.7-0.9c-1.3-0.9-1.7-1.9-3.5-3.1
				c-0.8-0.5-1.5-0.7-2.4-0.8c-3.2-0.6-9.3,0.7-14.1,5.7c-3.6,3.7-3.6,6.4-5.8,6.6c-2.5,0.2-5.4-3.3-6-6.7
				c-0.8-4.6,2.7-8.7,6.3-12.5c2.5-2.7,4.7-5.1,8.6-6.9c0.4-0.2,10.9-5.1,15.8-0.7c1.7,1.5,0.9,2.4,3.1,4.8c2.6,2.8,4.4,1.9,7.4,4.9
				c3.1,3.1,3.7,6.1,3.7,6.7C140.1,25.5,140.3,27.2,139.3,28.1z"/>
			<path class="st3" d="M147.6,39.6c0,0.1,0.1,0.4,0.2,0.7c0.2,0.5,0.9,2.5,2.8,3.4c0.7,0.3,1.9,0.9,2.5,0.5
				c1.3-0.9-1.1-4.2-0.9-8.2c0.3-6.2,6.6-7.1,7-12.9c0.3-5.4-5.1-9.8-5.7-10.3c-0.5-0.4-2-1.6-6.6-3.1c-6.3-2.1-15.9-4.2-16.8-2.1
				c-0.4,0.9,1.1,2.5,1.8,3.2c1.1,1,2.2,1.3,2.6,1.4c3.7,1.2,8.6,5.2,9.7,9.7c0.3,1.1,0.6,2.3,0.3,3.8c-0.2,1.6-0.9,2.4-0.7,3.9
				c0.1,0.6,0.2,0.8,0.9,2.2C144.8,31.7,146.9,36.3,147.6,39.6z"/>
			<path class="st3" d="M91.6,73.5c0,0,3.1,2.9,5.6,2.6c0.2,0,0.6-0.1,0.9-0.4c0.3-0.4,0.2-1,0.2-1.3c-0.3-1.7-4-3.6-6.6-6.4
				c-2.4-2.5-3.4-4.5-3.8-5.2c-0.3-0.5-1-2.1-1.6-4.7c-0.6-2.8-1.5-6.6-0.4-11c1.2-4.5,4.3-9,6.3-10.5c0.1-0.1,0.4-0.3,0.7-0.8
				c1.1-2-0.3-5.6-1.8-5.9c-1.3-0.2-1.8,2.2-5.2,5.1c-2.2,1.9-2.9,1.6-4.5,2.9c-5.1,4.1-4.9,12.3-4.9,13.3c0,3.9,1.5,6.7,2.9,9.5
				C80.5,63.3,84.3,66.8,91.6,73.5z"/>
		</g>
		<path class="st3" d="M233.4,103.3c0.8-0.5,2.1-1.3,2.8-0.8c0.7,0.4,0.4,1.9,0.2,2.8c-0.8,4.4-0.3,9.3,1.3,12.4
			c0.6,1.1,1.2,2.3,2.6,3.1c2.4,1.4,4.3,0.3,5.9,1.8c1.1,1.1,0.3,2,1.5,3.5c1.8,2.4,4.8,1.8,4.9,3c0,1.2-3.1,3.2-6.1,3.7
			c-2.3,0.4-2.9-0.5-6.6-0.2c-2.7,0.2-2.6,0.6-3.9,0.5c-3.5-0.4-6.4-3.7-6.7-6.7c0-0.5-0.1-1.3-0.1-3c-0.1-2,0-2.3-0.1-3.1
			c-0.3-2.5-1-3.1-1.2-6.2c-0.1-1.5-0.3-2.9,0.3-4.6C229.5,105.7,232.7,103.7,233.4,103.3z"/>
		<path class="st3" d="M261.4,101.9c0.7-1.8-0.5-3.6-1.1-4.3c-2.2-3-6-3.4-7.1-3.5c-1.4-0.1-4.4-0.4-7.6,1.4
			c-0.8,0.5-2.9,1.8-4.4,4.2c-1.7,2.7-1.7,5.2-1.7,7c0,1.3,0,8.6,4.4,10c1.6,0.5,4.1,0.3,5.6-1.2c0.9-0.9,1-2,1.1-2.2
			c0.3-2.2-1.7-2.8-1.4-5c0.2-1.4,1-2.4,1.2-2.6c0.2-0.2,0.9-1,2.3-1.5c3.1-1.1,4.6,1,6.9-0.2C259.6,103.9,260.9,103.2,261.4,101.9z
			"/>
		<path class="st3" d="M265.5,104.5c-0.9,0.2-1.3,1-2,1.8c-1.3,1.5-3.4,2.4-5.1,2.5c-2.1,0.1-3.4-1.1-4.6-0.3
			c-0.2,0.1-0.5,0.4-0.7,0.8c-0.3,1,0.8,1.7,1.2,3.6c0,0,0.1,0.6,0.1,1.5c-0.1,3.6-4.2,5.3-3.9,7.8c0.2,1.2,1.4,2.1,2.2,2.4
			c2.4,1,6-1.1,7-3.7c0.6-1.6-0.1-2.8,0.9-5.3c0.4-0.9,0.8-1.6,1-1.8c2.3-3.3,5.6-2.7,6.6-5.1c0.5-1.3,0.3-3-0.7-3.8
			C266.9,104.5,266.1,104.4,265.5,104.5z"/>
		<path class="st3" d="M237.4,97c1.8,0.3,2.2-2.8,6.1-5.3c6-3.8,12.9-1.7,13.3-1.6c1.8,0.6,4,1.3,5.7,3.3c1.8,2.1,1.7,4.1,4.3,6.2
			c0.9,0.8,1.8,1.5,2.9,1.3c2.1-0.3,3.9-3.7,3.1-5.8c-0.4-1.1-2.5-2.2-6.6-4.2c-1.3-0.6-2.3-1.1-3.3-2.2c-1.1-1.3-1.5-2.6-1.7-3.1
			c-1.7-4.4-13.6-7.7-21.8-3.1c-1.4,0.8-3.6,2.1-4.6,4.7C233.1,91.2,235.2,96.6,237.4,97z"/>
		<path class="st3" d="M241.1,77.4c0,1.3-4.1,1.8-7.1,4.7c-3.1,3-3.7,7.3-3.8,8.2c-0.5,4.5,2,5.8,0.7,8.7c-1,2.2-2.7,2-4.6,4.7
			c-1.8,2.6-2,5.3-2.2,7.3c-0.5,6.8,3,10,1.9,11.1c-1.3,1.2-6.9-1.6-9.3-6.2c-0.7-1.3-1-2.6-1.2-3.2c-0.6-2.9,0.1-4.2,0.2-7.4
			c0.2-5.6-1.9-6.8-0.5-11c0.4-1.4,1-2.3,1.4-2.9c2.1-3.5,4.2-4.2,10.9-9.2c1.7-1.3,4.6-3.4,8.2-5.1c1.2-0.6,3.1-1.4,4.5-0.7
			C240.5,76.7,241.1,76.9,241.1,77.4z"/>
		<path class="st3" d="M263.4,121.8c1.2-2.8,0.2-3.6,1.1-5.5c1.5-3,4.8-2,6.4-4.8c1.4-2.4,0.4-5.2,1.7-8c0.4-0.9,0.9-1.5,1.2-1.9
			c0.6-0.7,1.1-1.3,1.7-1.3c0.7,0,1.1,1,1.4,1.9c1,3.1,0.4,6.2,0.1,8.2c-1,6.4-0.2,5.8-0.9,7.8c-2.5,7.7-13.4,14.3-18,12.3
			c-1.1-0.5-2.2-1.6-2-2.4c0.3-1.1,2.6-0.8,4.8-2.8C262.4,124,263.1,122.6,263.4,121.8z"/>
		<path class="st3" d="M245.3,75.7c-0.2-0.6,0.4-1.4,0.5-1.6c1-1.5,3-1.9,3.8-2c6-1.3,7.1-4.8,12.3-5c3-0.1,5.2,1,5.9,1.4
			c3.7,2.1,2.9,4.7,6.7,8.1c3.1,2.8,4.3,1.6,7,4.3c0.7,0.7,3.5,3.8,3.8,8.7c0.2,3.4-0.7,8.6-3.1,9.6c-1.1,0.4-2.3-0.1-2.5-0.2
			c-1.4-0.7-1.6-2-2.3-3.6c-1.1-2.4-2.8-3.7-3.9-4.6c-2.6-2.1-3.9-1.2-6.2-3c-2.9-2.2-1.5-4.1-4.1-6.8c-3.5-3.6-9.7-4.1-11.4-4.2
			C248.8,76.6,245.7,77,245.3,75.7z"/>
		<path class="st3" d="M273.6,131.5c0-1-0.2-1.5-0.6-1.7c-1.2-0.6-3.1,2.1-7.1,3.8c-1.4,0.6-4.1,1.8-7.1,1.4
			c-1.8-0.3-2.5-0.9-4.4-0.7c-1.2,0.1-1.3,0.4-3.8,1.1c-2.8,0.8-4.2,1.2-5.9,1.1c-1.3-0.1-1.6-0.4-3.3-0.4c-1.1,0-2.9,0-3.3,0.8
			c-0.1,0.2-0.1,0.5,0,0.9c0.7,1.8,3.7,2.5,7,3.8c1.7,0.7,2.9,1.3,4.9,2.4c3.7,2,3.9,2.5,5.3,2.9c3.9,1.3,8.2-0.6,9.1-1
			C271.1,142.7,273.7,135.2,273.6,131.5z"/>
		<path class="st3" d="M276.4,126.1c-0.2-2.3,2.3-3.6,3.7-6.5c0.6-1.2,0.6-2.9,0.8-6.3c0.2-5.1-0.4-7.7,0.9-8.4
			c0.9-0.5,1.7,0.4,3.4-0.3c1.1-0.5,1.8-1.3,1.9-1.6c1.3-1.8,0.8-3.7,2.1-4.9c0.1-0.1,0.3-0.3,0.5-0.3c0.8-0.2,1.6,0.6,1.9,0.9
			c1.4,1.6,1.3,5.3,1.5,8.4c0.4,4.8,1.4,4.5,1.2,7.9c-0.1,1.3-0.2,4.2-1.9,7.4c-2.5,4.6-5,3.6-9.3,9.1c-1.9,2.5-4.3,6.4-6.2,6.7
			c-0.1,0-0.5,0.1-0.8-0.1c-0.5-0.5,0.4-1.7,1-3.5c1-3.3,0.1-6.2-0.1-6.8C276.6,126.6,276.5,126.8,276.4,126.1z"/>
	</g>
</g>
</svg>
